<svg width="106" height="104" viewBox="0 0 106 104" fill="none" xmlns="http://www.w3.org/2000/svg">
<g id="mailicon" clip-path="url(#clip0_5_176)">
<path id="Vector" d="M97.6715 79.6315C95.617 81.5701 92.8726 82.8197 89.8963 82.8742C65.7854 83.0204 41.6729 83.0204 17.562 82.8742C11.5929 82.7653 6.22749 77.6904 6.11321 71.6414C6.013 56.381 6.013 41.119 6.11321 25.8586C6.22418 19.9997 11.3942 14.7387 17.562 14.6258C41.6729 14.4787 65.7854 14.4787 89.8963 14.6258C95.8869 14.7355 101.231 19.8079 101.345 25.8586C101.436 41.1198 101.436 56.3802 101.345 71.6414C101.303 73.8993 100.513 76.0638 99.2052 77.8805C99.259 78.312 99.0197 78.6459 98.7713 78.9717C98.4939 79.3374 98.1022 79.5746 97.6715 79.6315ZM65.5337 49.9972L63.6704 51.7619C58.1335 56.9449 48.736 57.1651 42.9639 51.7562L42.5573 51.3711L13.1316 78.1885C14.4185 79.0611 15.9555 79.5941 17.6026 79.6242C41.687 79.7704 65.7713 79.7704 89.8557 79.6242C91.6867 79.5909 93.4415 78.9132 94.8526 77.8026L65.5337 49.9972ZM10.9652 21.4102C10.0302 22.6939 9.45635 24.2401 9.42488 25.8992C9.3255 41.1328 9.3255 56.3672 9.42488 71.6007C9.45386 73.1339 9.9615 74.6086 10.812 75.8672L40.1723 49.1091L10.9652 21.4102ZM96.1561 20.9901L67.9178 47.7384L96.9991 75.3179C97.631 74.208 98.0078 72.9438 98.0334 71.6016C98.1237 56.3672 98.1237 41.1328 98.0334 25.8984C97.9986 24.0939 97.2964 22.3722 96.1561 20.9901ZM93.6104 18.8841C92.4809 18.2666 91.2014 17.9002 89.8557 17.8758C65.8078 17.7295 41.759 17.875 17.7111 17.875C16.1551 17.8847 14.6545 18.3592 13.3676 19.1693C24.0297 29.2898 34.6405 39.4623 45.3688 49.5154C49.6875 53.4592 56.9261 53.5827 61.3765 49.417L93.6104 18.8841Z" fill="white"/>
</g>
<defs>
<clipPath id="clip0_5_176">
<rect width="106" height="104" fill="white"/>
</clipPath>
</defs>
</svg>
