<svg width="47" height="40" viewBox="0 0 47 40" fill="none" xmlns="http://www.w3.org/2000/svg">
<g id="moon">
<g id="Group">
<g id="Group_2">
<path id="Vector" d="M31.4955 24.6094C31.3303 24.6172 31.1742 24.6172 31.009 24.6172C28.3377 24.6172 25.8225 23.7344 23.9314 22.125C22.0404 20.5156 21.0031 18.375 21.0031 16.1016C21.0031 14.8047 21.3428 13.5547 21.9762 12.4219C22.2607 11.9219 22.6004 11.4453 22.9951 11C22.2974 11.0625 21.6273 11.1875 20.9756 11.3594C16.6795 12.5156 13.5676 15.9297 13.5676 19.9688C13.5676 24.9531 18.3135 28.9922 24.1701 28.9922C27.4105 28.9922 30.3021 27.7578 32.2482 25.8125C32.6889 25.3672 33.0928 24.8828 33.4232 24.3672C32.799 24.5 32.1564 24.5859 31.4955 24.6094Z" fill="#FFFCFC"/>
</g>
</g>
</g>
</svg>
